/* XPM */
static const char *arrow_join[] = {
/* columns rows colors chars-per-pixel */
"16 16 59 1",
"  c #034E99",
". c #07539E",
"X c #0A58A3",
"o c #1464AF",
"O c #1574BF",
"+ c #1E70B9",
"@ c #2378C3",
"# c #2C83CC",
"$ c #2E85CD",
"% c #3284C7",
"& c #3587CA",
"* c #2D86D1",
"= c #3692DD",
"- c #3D95DB",
"; c #3A97E2",
": c #3D9BE6",
"> c #08AEF9",
", c #12B8FF",
"< c #14B9FF",
"1 c #2DADED",
"2 c #2FAEED",
"3 c #24B9FB",
"4 c #2CBCFB",
"5 c #469AD9",
"6 c #469ADA",
"7 c #4098DD",
"8 c #45A6DF",
"9 c #52A0D6",
"0 c #54A2D7",
"q c #54A4DF",
"w c #55A5DF",
"e c #59A5DC",
"r c #409FE9",
"t c #47A7E0",
"y c #4AA1E1",
"u c #4CA2E1",
"i c #45A2E8",
"p c #5DAFE6",
"a c #56AEEB",
"s c #57AFEB",
"d c #5FB1E8",
"f c #61ADE4",
"g c #63B1EA",
"h c #64B2EA",
"j c #67BAEE",
"k c #68BBEF",
"l c #71BEF0",
"z c #74C2F2",
"x c #73C3F4",
"c c #75C5F4",
"v c #7FCCF6",
"b c #81CEF6",
"n c #82D0F9",
"m c #82D1F9",
"M c #8DD9FC",
"N c #90DCFD",
"B c #94E1FF",
"V c #95E2FE",
"C c None",
/* pixels */
"CCCrrrCCCC:i:CCC",
"CCC:ViCCCCiV:CCC",
"CCC;msCCCCsm:CCC",
"CCC=jc=CC=xj=CCC",
"CCCC-NuCCyM7CCCC",
"CCCC*pz**ld*CCCC",
"CCCCC#b56v$CCCCC",
"CCCCC@whhu@CCCCC",
"CCCCCC&fe&CCCCCC",
"CCCCCC+09+CCCCCC",
"CCCCCCot8oCCCCCC",
"CCCCOOO22OOOCCCC",
"CCCCCX4>>3XCCCCC",
"CCCCCC.<,.CCCCCC",
"CCCCCCC  CCCCCCC",
"CCCCCCCCCCCCCCCC"
};
