/* XPM */
static const char *arrow_circle[] = {
/* columns rows colors chars-per-pixel */
"16 16 82 1",
"  c #024D98",
". c #034E99",
"X c #05519C",
"o c #0A57A2",
"O c #0E5DA8",
"+ c #1062AD",
"@ c #1464AF",
"# c #196BB6",
"$ c #1E72BD",
"% c #1F73BE",
"& c #257AC5",
"* c #2C81C6",
"= c #2883C9",
"- c #2A82CD",
"; c #3185C8",
": c #338CCD",
"> c #3089D4",
", c #3490DB",
"< c #3B95DD",
"1 c #3C96DE",
"2 c #14ACF6",
"3 c #2CA3E5",
"4 c #24A8EE",
"5 c #26A9EF",
"6 c #29ABEF",
"7 c #37A5E7",
"8 c #39A0E0",
"9 c #3AA8E8",
"0 c #25BBFC",
"q c #2FB8F8",
"w c #3CB4F2",
"e c #3DBDF8",
"r c #4092D5",
"t c #4193D6",
"y c #469EDC",
"u c #57A6DF",
"i c #409EE9",
"p c #43A0E7",
"a c #46A0E5",
"s c #46A1E5",
"d c #4CA1E3",
"f c #48A4E2",
"g c #4BA7E3",
"h c #54A9E1",
"j c #5BAAE2",
"k c #5EADE3",
"l c #5AACE5",
"z c #48B1EC",
"x c #5FB1E7",
"c c #47BAF4",
"v c #5DBEF0",
"b c #61A8E0",
"n c #64ABE2",
"m c #6AAEE5",
"M c #6BAFE5",
"N c #6CB4E7",
"B c #69B2E8",
"V c #6AB3E8",
"C c #6CB6E8",
"Z c #6BB9E9",
"A c #70BBEF",
"S c #73BFEC",
"D c #76BDED",
"F c #78BEEE",
"G c #67BCF2",
"H c #67BDF2",
"J c #34C0FD",
"K c #42C6FD",
"L c #76C0ED",
"P c #7CC3F3",
"I c #7CC4F3",
"U c #82CCF9",
"Y c #85CFFA",
"T c #82D2FA",
"R c #83D2FA",
"E c #8DD7FA",
"W c #91DBFC",
"Q c #91DCFD",
"! c #93DEFD",
"~ c #90DCFE",
"^ c #91DCFE",
"/ c None",
/* pixels */
"////////////////",
"//////iiii//////",
"////aGT~~RHp////",
"///a~YUUUUY!a///",
"//<EPAd,,dAI~1//",
"//lDB>////>VFn//",
"/-Cmr//////tBL-/",
"/&Nb&//////&nL&/",
"/$nh$///$//%jZ%/",
"/#yf*///###;gh#/",
"//=78@//@v@z9://",
"///653//Owc4w+//",
"////////oq2eoo//",
"////////XJ00KX//",
"////////. .  ../",
"////////////////"
};
