/* XPM */
static const char *arrow[] = {
/* columns rows colors chars-per-pixel */
"16 16 58 1",
"  c #024D98",
". c #034E99",
"X c #07539E",
"o c #0C5AA5",
"O c #1261AC",
"+ c #186AB5",
"@ c #1F73BD",
"# c #257BC6",
"$ c #2C84CF",
"% c #328CD7",
"& c #3697D7",
"* c #3792DD",
"= c #3793DE",
"- c #3898D8",
"; c #269FE2",
": c #3C9AE5",
"> c #16A7EF",
", c #0FB2FA",
"< c #10B2FA",
"1 c #12B3FA",
"2 c #13B3FA",
"3 c #14B3FA",
"4 c #16B4FA",
"5 c #1EB8FB",
"6 c #2BA1E4",
"7 c #2AB0F2",
"8 c #2CB2F2",
"9 c #4B9AD7",
"0 c #409EE9",
"q c #46A1E0",
"w c #55A3E0",
"e c #53AEE3",
"r c #5FAFEB",
"t c #43B1E9",
"y c #58B5EE",
"u c #60ADEA",
"i c #62B0E1",
"p c #66B2EE",
"a c #69B5F0",
"s c #71BDF2",
"d c #70BCF3",
"f c #73BFF2",
"g c #77C3F4",
"h c #78C4F7",
"j c #7BC7F6",
"k c #7CC8F6",
"l c #80CCF8",
"z c #82CEF8",
"x c #82CEF9",
"c c #81CDFB",
"v c #85D1F9",
"b c #88D4FB",
"n c #89D5FB",
"m c #8BD7FC",
"M c #8EDAFD",
"N c #8FDBFE",
"B c #93DFFF",
"V c None",
/* pixels */
"VVVVVVVVVVVVVVVV",
"VVVVVVVVVVVVVVVV",
"VVVVVVVVVV0VVVVV",
"VVVVVVVVV:B:VVVV",
"VV*VVVVV*NcN*VVV",
"VV%%VVV%mhhhb%VV",
"VV$n$$$vdddz$VVV",
"VV#gz#zaaaj#VVVV",
"VV@spkuw9i@VVVVV",
"VV+srq-&e+VVVVVV",
"VVOy6;;tOOVVVVVV",
"VVo7>>>>8oVVVVVV",
"VVX5222,,3XVVVVV",
"VV.. .  ....VVVV",
"VVVVVVVVVVVVVVVV",
"VVVVVVVVVVVVVVVV"
};
