/* XPM */
const static char * strat_16_xpm[] = {
"16 16 84 1",
" 	c None",
".	c #76B837",
"+	c #8FCA58",
"@	c #96D05C",
"#	c #7DC638",
"$	c #82C147",
"%	c #A0D66B",
"&	c #8DD04C",
"*	c #7EC639",
"=	c #6EBB26",
"-	c #7AB93E",
";	c #A3D86F",
">	c #9CDA5F",
",	c #6CB923",
"'	c #63B119",
")	c #74B339",
"!	c #A3D872",
"~	c #B4E583",
"{	c #9EDB63",
"]	c #8BCF49",
"^	c #75C22A",
"/	c #65B618",
"(	c #69B421",
"_	c #77B739",
":	c #76B13C",
"<	c #9DD865",
"[	c #77C72A",
"}	c #6CBE1D",
"|	c #6FB036",
"1	c #5B84A1",
"2	c #638DAC",
"3	c #688EBA",
"4	c #658CBA",
"5	c #6185B5",
"6	c #8CD14A",
"7	c #72C522",
"8	c #6DB036",
"9	c #648BBB",
"0	c #6391C5",
"a	c #6D9BCC",
"b	c #6592C6",
"c	c #678FBF",
"d	c #86CF40",
"e	c #6EB135",
"f	c #6C91BD",
"g	c #608EC3",
"h	c #6795C7",
"i	c #618FC3",
"j	c #668EBE",
"k	c #84C644",
"l	c #81C440",
"m	c #78BA40",
"n	c #588F63",
"o	c #588D65",
"p	c #7B9CC4",
"q	c #5C89BD",
"r	c #5786BC",
"s	c #5483BA",
"t	c #6088BA",
"u	c #708EB9",
"v	c #8DA9CC",
"w	c #789AC5",
"x	c #678EBF",
"y	c #5480B6",
"z	c #4575B0",
"A	c #4977B0",
"B	c #5781B5",
"C	c #5E81AF",
"D	c #7492BC",
"E	c #6D90BD",
"F	c #5D84B7",
"G	c #517BB1",
"H	c #416FAA",
"I	c #3667A5",
"J	c #567BAD",
"K	c #7595BD",
"L	c #5E84B6",
"M	c #4E79B0",
"N	c #406EA9",
"O	c #557CAE",
"P	c #6F90BB",
"Q	c #4D78AF",
"R	c #587EB2",
"S	c #6B8DB9",
"                ",
"    .+          ",
"    @#$         ",
"   %&*=-        ",
"  ;>&*,')       ",
" !~{]^/(_:      ",
"   <[}/|12345   ",
"   67}/890abc   ",
"   d7}/efghij   ",
"   klmnopqrst   ",
"      uvwxyzABC ",
"       DEFGHIJ  ",
"        KLMNO   ",
"         PQR    ",
"          S     ",
"                "};
